<svg width="70" height="24" viewBox="0 0 70 24" fill="none" xmlns="http://www.w3.org/2000/svg">
<path d="M0 12C0 11.4477 0.447715 11 1 11H23C23.5523 11 24 11.4477 24 12C24 12.5523 23.5523 13 23 13H1C0.447716 13 0 12.5523 0 12Z" fill="#AEAEAE"/>
<path d="M63 20.75H53C48.59 20.75 47.25 19.41 47.25 15V14.5C47.25 14.09 47.59 13.75 48 13.75C48.96 13.75 49.75 12.96 49.75 12C49.75 11.04 48.96 10.25 48 10.25C47.59 10.25 47.25 9.91 47.25 9.5V9C47.25 4.59 48.59 3.25 53 3.25H63C67.41 3.25 68.75 4.59 68.75 9V10C68.75 10.41 68.41 10.75 68 10.75C67.04 10.75 66.25 11.54 66.25 12.5C66.25 13.46 67.04 14.25 68 14.25C68.41 14.25 68.75 14.59 68.75 15C68.75 19.41 67.41 20.75 63 20.75ZM48.75 15.16C48.77 18.6 49.48 19.25 53 19.25H63C66.34 19.25 67.15 18.66 67.24 15.66C65.81 15.32 64.75 14.03 64.75 12.5C64.75 10.97 65.82 9.68 67.25 9.34V9C67.25 5.43 66.58 4.75 63 4.75H53C49.48 4.75 48.77 5.4 48.75 8.84C50.18 9.18 51.25 10.47 51.25 12C51.25 13.53 50.18 14.82 48.75 15.16Z" fill="#AEAEAE"/>
<path d="M56 7.25C55.59 7.25 55.25 6.91 55.25 6.5V4C55.25 3.59 55.59 3.25 56 3.25C56.41 3.25 56.75 3.59 56.75 4V6.5C56.75 6.91 56.41 7.25 56 7.25Z" fill="#AEAEAE"/>
<path d="M56 14.5802C55.59 14.5802 55.25 14.2402 55.25 13.8302V10.1602C55.25 9.75016 55.59 9.41016 56 9.41016C56.41 9.41016 56.75 9.75016 56.75 10.1602V13.8302C56.75 14.2502 56.41 14.5802 56 14.5802Z" fill="#AEAEAE"/>
<path d="M56 20.75C55.59 20.75 55.25 20.41 55.25 20V17.5C55.25 17.09 55.59 16.75 56 16.75C56.41 16.75 56.75 17.09 56.75 17.5V20C56.75 20.41 56.41 20.75 56 20.75Z" fill="#AEAEAE"/>
</svg>
