<svg width="140" height="50" viewBox="0 0 140 50" fill="none" xmlns="http://www.w3.org/2000/svg">
<circle cx="26.7857" cy="32.1429" r="8.92857" fill="#0057BE"/>
<path d="M45.7728 40H40.2483L50.3068 11.4286H56.6964L66.7689 40H61.2443L53.6132 17.2879H53.39L45.7728 40ZM45.9542 28.7974H61.0211V32.9548H45.9542V28.7974ZM86.764 18.5714L79.1329 40H73.5525L65.9214 18.5714H71.3064L76.2311 34.4894H76.4543L81.3929 18.5714H86.764ZM90.2587 40V18.5714H95.3089V40H90.2587ZM92.7978 15.5301C91.9979 15.5301 91.3097 15.2651 90.733 14.7349C90.1564 14.1955 89.8681 13.5491 89.8681 12.7958C89.8681 12.0331 90.1564 11.3867 90.733 10.8566C91.3097 10.3171 91.9979 10.0474 92.7978 10.0474C93.6069 10.0474 94.2952 10.3171 94.8625 10.8566C95.4391 11.3867 95.7275 12.0331 95.7275 12.7958C95.7275 13.5491 95.4391 14.1955 94.8625 14.7349C94.2952 15.2651 93.6069 15.5301 92.7978 15.5301ZM106.668 40.4325C105.311 40.4325 104.088 40.1907 102.999 39.707C101.921 39.2141 101.065 38.4887 100.432 37.5307C99.8093 36.5727 99.4977 35.3916 99.4977 33.9872C99.4977 32.7781 99.7209 31.7783 100.167 30.9877C100.614 30.1972 101.223 29.5647 101.995 29.0904C102.767 28.6161 103.636 28.258 104.604 28.0162C105.58 27.7651 106.589 27.5837 107.631 27.4721C108.887 27.3419 109.905 27.2256 110.686 27.1233C111.468 27.0117 112.035 26.8443 112.388 26.6211C112.751 26.3886 112.932 26.0305 112.932 25.5469V25.4632C112.932 24.4122 112.621 23.5984 111.998 23.0218C111.375 22.4451 110.477 22.1568 109.305 22.1568C108.068 22.1568 107.087 22.4265 106.362 22.966C105.645 23.5054 105.162 24.1425 104.911 24.8772L100.195 24.2076C100.567 22.9055 101.181 21.8173 102.037 20.9431C102.892 20.0595 103.939 19.3992 105.176 18.9621C106.413 18.5156 107.78 18.2924 109.277 18.2924C110.31 18.2924 111.337 18.4133 112.36 18.6551C113.383 18.8969 114.318 19.2969 115.165 19.8549C116.011 20.4036 116.69 21.1523 117.201 22.101C117.722 23.0497 117.983 24.2355 117.983 25.6585V40H113.128V37.0564H112.96C112.653 37.6516 112.221 38.2096 111.663 38.7305C111.114 39.242 110.421 39.6559 109.584 39.9721C108.756 40.279 107.785 40.4325 106.668 40.4325ZM107.98 36.7215C108.994 36.7215 109.873 36.5216 110.617 36.1217C111.361 35.7124 111.933 35.173 112.333 34.5033C112.742 33.8337 112.946 33.1036 112.946 32.3131V29.7879C112.788 29.9182 112.519 30.0391 112.137 30.1507C111.765 30.2623 111.347 30.3599 110.882 30.4436C110.417 30.5273 109.956 30.6017 109.5 30.6669C109.045 30.732 108.649 30.7878 108.315 30.8343C107.561 30.9366 106.887 31.104 106.292 31.3365C105.697 31.569 105.227 31.8945 104.883 32.3131C104.539 32.7223 104.367 33.2524 104.367 33.9035C104.367 34.8335 104.706 35.5357 105.385 36.01C106.064 36.4844 106.929 36.7215 107.98 36.7215Z" fill="#0057BE"/>
</svg>
