<svg width="78" height="28" viewBox="0 0 78 28" fill="none" xmlns="http://www.w3.org/2000/svg">
<circle cx="15" cy="18" r="5" fill="white"/>
<path d="M25.6328 23H22.5391L28.1719 7H31.75L37.3906 23H34.2969L30.0234 10.2812H29.8984L25.6328 23ZM25.7344 16.7266H34.1719V19.0547H25.7344V16.7266ZM48.5879 11L44.3145 23H41.1895L36.916 11H39.9316L42.6895 19.9141H42.8145L45.5801 11H48.5879ZM50.5449 23V11H53.373V23H50.5449ZM51.9668 9.29688C51.5189 9.29688 51.1335 9.14844 50.8105 8.85156C50.4876 8.54948 50.3262 8.1875 50.3262 7.76562C50.3262 7.33854 50.4876 6.97656 50.8105 6.67969C51.1335 6.3776 51.5189 6.22656 51.9668 6.22656C52.4199 6.22656 52.8053 6.3776 53.123 6.67969C53.446 6.97656 53.6074 7.33854 53.6074 7.76562C53.6074 8.1875 53.446 8.54948 53.123 8.85156C52.8053 9.14844 52.4199 9.29688 51.9668 9.29688ZM59.7344 23.2422C58.974 23.2422 58.2891 23.1068 57.6797 22.8359C57.0755 22.5599 56.5964 22.1536 56.2422 21.6172C55.8932 21.0807 55.7188 20.4193 55.7188 19.6328C55.7188 18.9557 55.8438 18.3958 56.0938 17.9531C56.3438 17.5104 56.6849 17.1562 57.1172 16.8906C57.5495 16.625 58.0365 16.4245 58.5781 16.2891C59.125 16.1484 59.6901 16.0469 60.2734 15.9844C60.9766 15.9115 61.5469 15.8464 61.9844 15.7891C62.4219 15.7266 62.7396 15.6328 62.9375 15.5078C63.1406 15.3776 63.2422 15.1771 63.2422 14.9062V14.8594C63.2422 14.2708 63.0677 13.8151 62.7188 13.4922C62.3698 13.1693 61.8672 13.0078 61.2109 13.0078C60.5182 13.0078 59.9688 13.1589 59.5625 13.4609C59.1615 13.763 58.8906 14.1198 58.75 14.5312L56.1094 14.1562C56.3177 13.4271 56.6615 12.8177 57.1406 12.3281C57.6198 11.8333 58.2057 11.4635 58.8984 11.2187C59.5911 10.9688 60.3568 10.8438 61.1953 10.8438C61.7734 10.8438 62.349 10.9115 62.9219 11.0469C63.4948 11.1823 64.0182 11.4062 64.4922 11.7187C64.9661 12.026 65.3464 12.4453 65.6328 12.9766C65.9245 13.5078 66.0703 14.1719 66.0703 14.9687V23H63.3516V21.3516H63.2578C63.0859 21.6849 62.8438 21.9974 62.5313 22.2891C62.224 22.5755 61.8359 22.8073 61.3672 22.9844C60.9036 23.1563 60.3594 23.2422 59.7344 23.2422ZM60.4688 21.1641C61.0365 21.1641 61.5286 21.0521 61.9453 20.8281C62.362 20.599 62.6823 20.2969 62.9062 19.9219C63.1354 19.5469 63.25 19.138 63.25 18.6953V17.2812C63.1615 17.3542 63.0104 17.4219 62.7969 17.4844C62.5885 17.5469 62.3542 17.6016 62.0938 17.6484C61.8333 17.6953 61.5755 17.737 61.3203 17.7734C61.0651 17.8099 60.8438 17.8411 60.6563 17.8672C60.2344 17.9245 59.8568 18.0182 59.5234 18.1484C59.1901 18.2786 58.9271 18.4609 58.7344 18.6953C58.5417 18.9245 58.4453 19.2214 58.4453 19.5859C58.4453 20.1068 58.6354 20.5 59.0156 20.7656C59.3958 21.0312 59.8802 21.1641 60.4688 21.1641Z" fill="white"/>
</svg>
