<svg width="20" height="20" viewBox="0 0 20 20" fill="none" xmlns="http://www.w3.org/2000/svg">
<path d="M11.1412 16.7082L12.8162 12.8166L13.1829 11.9499C13.2495 11.8166 13.4245 11.6999 13.5745 11.6999L16.1245 11.6999C16.9245 11.6999 17.8745 11.1082 18.2412 10.3916C18.3662 10.1416 18.3662 9.84155 18.2412 9.59155C17.8745 8.88322 16.9162 8.29155 16.1162 8.29155L13.5662 8.29155C13.4162 8.29155 13.2412 8.17489 13.1745 8.04155L11.1329 3.29155C10.9162 2.76655 10.2579 2.34155 9.69121 2.34155L8.59121 2.34155C7.88288 2.34155 7.53288 2.87489 7.81621 3.53322L9.61621 7.70822C9.75788 8.03322 9.58288 8.29989 9.22454 8.29989L8.29954 8.29989L6.79954 8.29989C6.60788 8.29989 6.33288 8.19155 6.19954 8.05822L4.25788 6.12489C4.05788 5.92489 3.66621 5.83322 3.38288 5.92489L2.24954 6.29989C1.75788 6.44989 1.52455 7.00822 1.75788 7.46655L3.42454 9.44989C3.68288 9.74989 3.68288 10.2416 3.42454 10.5416L1.75788 12.5249C1.53288 12.9832 1.75788 13.5416 2.24954 13.7082L3.38288 14.0832C3.65788 14.1749 4.05788 14.0832 4.25788 13.8832L6.19954 11.9499C6.33288 11.8082 6.60788 11.6999 6.79954 11.6999L9.22454 11.6999C9.58288 11.6999 9.74954 11.9582 9.61621 12.2916L7.81621 16.4666C7.53288 17.1249 7.88288 17.6582 8.59121 17.6582L9.69121 17.6582C10.2579 17.6582 10.9162 17.2332 11.1412 16.7082Z" fill="#222222"/>
</svg>
