<svg width="24" height="24" viewBox="0 0 24 24" fill="none" xmlns="http://www.w3.org/2000/svg">
<path d="M10.4502 7.46997C10.2602 7.46997 10.0702 7.4 9.9202 7.25L6.7302 4.06L3.54019 7.25C3.25019 7.54 2.7702 7.54 2.4802 7.25C2.1902 6.96 2.1902 6.48 2.4802 6.19L6.20023 2.46997C6.34023 2.32997 6.5302 2.25 6.7302 2.25C6.9302 2.25 7.12022 2.32997 7.26022 2.46997L10.9802 6.19C11.2702 6.48 11.2702 6.96 10.9802 7.25C10.8302 7.4 10.6402 7.46997 10.4502 7.46997Z" fill="white"/>
<path d="M6.73047 21.75C6.32047 21.75 5.98047 21.41 5.98047 21V3C5.98047 2.59 6.32047 2.25 6.73047 2.25C7.14047 2.25 7.48047 2.59 7.48047 3V21C7.48047 21.41 7.14047 21.75 6.73047 21.75Z" fill="white"/>
<path d="M17.28 21.75C17.08 21.75 16.89 21.67 16.75 21.53L13.03 17.81C12.74 17.52 12.74 17.04 13.03 16.75C13.32 16.46 13.8 16.46 14.09 16.75L17.28 19.94L20.4699 16.75C20.7599 16.46 21.24 16.46 21.53 16.75C21.82 17.04 21.82 17.52 21.53 17.81L17.81 21.53C17.67 21.67 17.47 21.75 17.28 21.75Z" fill="white"/>
<path d="M17.2695 21.75C16.8595 21.75 16.5195 21.41 16.5195 21V3C16.5195 2.59 16.8595 2.25 17.2695 2.25C17.6795 2.25 18.0195 2.59 18.0195 3V21C18.0195 21.41 17.6895 21.75 17.2695 21.75Z" fill="white"/>
</svg>
