<svg width="70" height="24" viewBox="0 0 70 24" fill="none" xmlns="http://www.w3.org/2000/svg">
<path d="M0 12C0 11.4477 0.447715 11 1 11H23C23.5523 11 24 11.4477 24 12C24 12.5523 23.5523 13 23 13H1C0.447716 13 0 12.5523 0 12Z" fill="#AEAEAE"/>
<path d="M59.4002 17.4201H56.8902C55.2502 17.4201 53.9202 16.0401 53.9202 14.3401C53.9202 13.9301 54.2602 13.5901 54.6702 13.5901C55.0802 13.5901 55.4202 13.9301 55.4202 14.3401C55.4202 15.2101 56.0802 15.9201 56.8902 15.9201H59.4002C60.0502 15.9201 60.5902 15.3401 60.5902 14.6401C60.5902 13.7701 60.2802 13.6001 59.7702 13.4201L55.7402 12.0001C54.9602 11.7301 53.9102 11.1501 53.9102 9.36008C53.9102 7.82008 55.1202 6.58008 56.6002 6.58008H59.1102C60.7502 6.58008 62.0802 7.96008 62.0802 9.66008C62.0802 10.0701 61.7402 10.4101 61.3302 10.4101C60.9202 10.4101 60.5802 10.0701 60.5802 9.66008C60.5802 8.79008 59.9202 8.08008 59.1102 8.08008H56.6002C55.9502 8.08008 55.4102 8.66008 55.4102 9.36008C55.4102 10.2301 55.7202 10.4001 56.2302 10.5801L60.2602 12.0001C61.0402 12.2701 62.0902 12.8501 62.0902 14.6401C62.0802 16.1701 60.8802 17.4201 59.4002 17.4201Z" fill="#AEAEAE"/>
<path d="M58 18.75C57.59 18.75 57.25 18.41 57.25 18V6C57.25 5.59 57.59 5.25 58 5.25C58.41 5.25 58.75 5.59 58.75 6V18C58.75 18.41 58.41 18.75 58 18.75Z" fill="#AEAEAE"/>
<path d="M58 22.75C52.07 22.75 47.25 17.93 47.25 12C47.25 6.07 52.07 1.25 58 1.25C63.93 1.25 68.75 6.07 68.75 12C68.75 17.93 63.93 22.75 58 22.75ZM58 2.75C52.9 2.75 48.75 6.9 48.75 12C48.75 17.1 52.9 21.25 58 21.25C63.1 21.25 67.25 17.1 67.25 12C67.25 6.9 63.1 2.75 58 2.75Z" fill="#AEAEAE"/>
</svg>
