<svg width="6" height="106" viewBox="0 0 6 106" fill="none" xmlns="http://www.w3.org/2000/svg">
<path d="M3 5.33333C1.52724 5.33333 0.333333 6.52724 0.333333 8C0.333333 9.47276 1.52724 10.6667 3 10.6667C4.47276 10.6667 5.66667 9.47276 5.66667 8C5.66667 6.52724 4.47276 5.33333 3 5.33333ZM3 95.3333C1.52724 95.3333 0.333329 96.5272 0.333329 98C0.333329 99.4728 1.52724 100.667 3 100.667C4.47276 100.667 5.66666 99.4728 5.66666 98C5.66666 96.5272 4.47276 95.3333 3 95.3333ZM2.5 8L2.5 98L3.5 98L3.5 8L2.5 8Z" fill="#EF2323"/>
</svg>
